<?xml version="1.0" encoding="UTF-8" standalone="no"?><!-- Generator: Gravit.io --><svg xmlns="http://www.w3.org/2000/svg" xmlns:xlink="http://www.w3.org/1999/xlink" style="isolation:isolate" viewBox="226 104 1566.556 607.576" width="1566.556pt" height="607.576pt"><defs><clipPath id="_clipPath_rIP426L8hYPvJIV7jaUS6L9YdWeNAoHr"><rect x="226" y="104" width="1566.556" height="607.576"/></clipPath></defs><g clip-path="url(#_clipPath_rIP426L8hYPvJIV7jaUS6L9YdWeNAoHr)"><g><path d=" M 1166.765 447.643 C 1207.932 428.374 1249.181 427.648 1290.435 447.227 C 1305.509 454.386 1320.806 460.777 1337.324 463.884 C 1368.024 469.65 1391.84 459.348 1409.042 433.398 C 1412.849 427.661 1416.11 421.631 1419.256 415.514 C 1439.991 375.184 1488.061 358.434 1529.236 377.59 C 1557.846 390.897 1587.336 391.45 1617.416 384.722 C 1653.146 376.727 1685.466 361.514 1713.586 337.823 C 1720.166 332.278 1725.586 325.823 1729.786 318.185 C 1738.076 303.134 1756.156 297.233 1772.156 303.889 C 1787.146 310.115 1795.756 327.612 1791.446 343.067 C 1786.706 360.025 1771.106 371.26 1754.336 367.815 C 1738.056 364.47 1722.446 366.244 1706.846 370.291 C 1669.886 379.889 1636.506 396.439 1608.496 422.775 C 1592.066 438.219 1580.336 456.588 1573.856 478.441 C 1561.386 520.49 1516.086 545.693 1473.534 534.716 C 1459.745 531.155 1445.905 528.297 1431.495 529.681 C 1410.555 531.692 1395.565 542.933 1384.208 559.836 C 1374.38 574.472 1368.627 590.868 1363.662 607.611 C 1347.503 662.007 1311.87 697.02 1256.367 708.282 C 1200.626 719.602 1153.255 701.584 1118.394 656.737 C 1068.712 592.811 1085.291 503.417 1148.3 458.805 C 1154.173 454.647 1160.221 450.822 1166.749 447.631 L 1166.765 447.643 L 1166.765 447.643 Z " fill="rgb(148,0,211)"/><g clip-path="url(#_clipPath_EzsjtpAKBzSPstxySmjU7PkyPy7TTIWS)"><text transform="matrix(1,0,0,1,859.278,363.547)" style="font-family:'Open Sans';font-weight:400;font-size:20px;font-style:normal;fill:#9400d3;stroke:none;">9400D3</text></g><defs><clipPath id="_clipPath_EzsjtpAKBzSPstxySmjU7PkyPy7TTIWS"><rect x="0" y="0" width="74" height="27.236" transform="matrix(1,0,0,1,859.278,342.17)"/></clipPath></defs><path d=" M 953.022 333.825 C 956.693 338.907 959.934 344.388 962.672 350.238 C 963.905 352.869 965.094 355.528 966.087 358.259 C 967.584 362.36 969.029 366.486 969.55 369.89 L 969.541 369.879 C 981.138 419.837 956.011 469.32 908.961 488.632 C 876.235 502.062 844.063 499.191 814.363 480.049 C 797.159 468.96 779.016 461.263 759.086 457.364 C 739.194 453.47 719.088 452.49 698.875 453.15 C 674.382 453.952 650.184 457.101 626.179 462.02 C 592.209 468.989 559.246 478.993 527.963 494.107 C 515.207 500.272 502.958 507.295 492.433 516.962 C 489.66 519.503 487.167 522.28 484.976 525.334 C 469.364 547.091 441.19 555.528 416.108 545.941 C 402.688 540.814 388.921 537.453 374.429 538.105 C 353.289 539.058 336.692 548.525 324.051 565.273 C 318.554 572.555 314.515 580.613 311.134 589.045 C 298.697 620.026 259.217 627.03 236.886 602.23 C 215.626 578.616 227.065 539.579 257.688 531.073 C 266.459 528.639 275.061 528.764 283.779 531.355 C 296.785 535.22 310.064 536.727 323.536 534.363 C 341.01 531.3 354.66 522.074 365.096 507.903 C 372.658 497.635 377.385 486.045 381.212 473.978 C 386.377 457.691 396.65 445.583 412.201 438.332 C 429.387 430.323 446.806 430.344 463.648 438.984 C 474.536 444.565 485.962 447.374 497.932 448.659 C 518.713 450.886 539.45 449.828 560.166 447.602 C 584.232 445.016 607.936 440.456 631.249 434.076 C 668.85 423.79 705.002 410.026 737.408 387.807 C 755.725 375.247 771.031 359.971 782.434 340.595 C 791.907 324.497 804.789 312.4 820.539 304.031 C 820.111 302.052 819.747 300.03 819.449 297.964 C 818.175 289.104 816.491 280.372 812.978 272.068 C 806.444 256.638 794.773 249.053 778.072 249.067 C 774.379 249.068 770.717 249.401 767.05 249.81 C 742.874 252.512 721.124 236.002 717.465 211.917 C 714.921 195.184 706.419 181.844 694.485 170.397 C 680.308 156.803 663.919 146.875 644.988 141.34 C 640.558 140.045 636.065 139.54 631.404 139.927 C 622.219 140.689 614.218 134.364 612.443 125.238 C 610.777 116.692 616.041 107.652 624.227 104.993 C 633.21 102.077 642.86 105.713 646.296 114.228 C 649.635 122.499 655.06 128.948 661.498 134.718 C 676.754 148.384 694.055 158.389 714.137 163.092 C 725.914 165.851 737.603 165.641 749.291 162.05 C 771.78 155.143 796.487 167.91 804.209 190.181 C 806.71 197.4 809.54 204.433 814.435 210.461 C 821.547 219.221 831.019 222.584 841.943 222.643 C 851.399 222.692 860.433 220.397 869.389 217.647 C 898.491 208.726 924.712 214.258 946.215 235.718 C 967.815 257.268 973.821 283.783 964.126 312.67 C 961.477 320.56 957.688 327.64 953.022 333.825 L 953.022 333.825 Z " fill-rule="evenodd" fill="rgb(148,0,211)"/></g></g></svg>