<svg xmlns="http://www.w3.org/2000/svg" viewBox="0 0 700 700" xml:space="preserve">
    <path d="M349.9 28.7C172.4 28.7 28.6 172.5 28.6 350s143.9 321.3 321.3 321.3S671.3 527.5 671.3 350 527.4 28.7 349.9 28.7zm168 459.1H465.6c0-.2-.1-.5-.1-.7-11.3-41.8-22.5-83.7-33.8-125.5-.2-.6-.3-1.2-.5-2-.3.5-.5.8-.7 1.1-24.3 42.1-48.6 84.2-73 126.3-.2.3-.3.5-.4.8h-58.3l.3-.6c16.1-28 32.1-56.1 48.3-84.1 21.6-37.4 43.2-74.7 64.9-112.1.3-.6.4-1.1.2-1.7-5.9-22.1-11.8-44.3-17.8-66.4-.1-.5-.3-1-.5-1.6-.1.2-.2.3-.3.4-2.7 4.5-5.4 8.9-8 13.4-41.1 71.2-82.2 142.4-123.2 213.6-7.5 13-15.1 26.1-22.6 39.1h-58.3c34-58.9 67.9-117.8 101.9-176.7 30.5-52.8 61-105.7 91.6-158.5 1.3-2.2 1.3-2.2 3.9-2.2h48.5c.6 2.3 1.2 4.7 1.9 7 6.3 23.7 12.7 47.3 19 71 .5 1.8 1 3.5 1.5 5.3.2.7.5.9 1.2.9h52.1c-.2.4-.4.7-.6 1.1-11.7 20.3-23.5 40.6-35.2 60.8-.3.6-.4 1.1-.3 1.8L509 453.1l9 33.6c.1.3.2.6.3.8-.3.1-.3.3-.4.3z"/>
</svg>