<svg xmlns="http://www.w3.org/2000/svg" viewBox="0 0 700 700" xml:space="preserve"><path d="M350 28.7C172.5 28.7 28.7 172.5 28.7 350S172.5 671.3 350 671.3 671.3 527.5 671.3 350 527.5 28.7 350 28.7zM320.8 438c-1.9 3.4-3.9 6.7-6.1 9.9-10.7 15.6-25.6 23.7-44.4 24.2-13.2.3-26.4.1-39.6.1-13.7 0-27.4.1-41.1 0-5.1 0-10-1.1-13.8-5.1-5.2-5.5-7-11.8-4.2-18.9 2-4.9 4.5-9.6 7.1-14.2 32.4-56.9 64.9-113.8 97.4-170.7 15.2-26.7 30.5-53.4 45.8-80.1 2.6-4.6 5.6-9 8.5-13.4 6-9.2 21.7-9.7 28.3.1 1.7 2.6 3.6 5.1 5.1 7.8 12 20.8 23.9 41.7 35.8 62.6 3.4 6 6.3 12.1 7.6 19 2.4 12.2 1.3 24-4.5 35.1-5.7 10.9-11.8 21.5-17.9 32.2-21.4 37-42.7 74.2-64 111.4zm191.7 34.1c-6.6.1-13.2.3-19.8.3h-33.8v-.2h-51.2c-1.8 0-3.6-.2-5.4-.5-8.5-1.6-14-7.4-15-15.9-.4-3.2.5-6.2 1.9-9 2.1-4.3 4.3-8.6 6.7-12.7 14.4-24.8 28.9-49.6 43.4-74.3 1.8-3 3.8-5.8 5.8-8.7 6.2-9.2 21.7-9.1 27.8-.1 2.5 3.6 5 7.2 7.2 11 14.3 24.3 28.5 48.6 42.7 73 2.1 3.6 3.9 7.3 5.9 10.9 6 11.3-1.5 25.9-16.2 26.2z"/></svg>