<svg xmlns="http://www.w3.org/2000/svg" viewBox="0 0 700 700" xml:space="preserve">
    <path d="M350 28.7C172.5 28.7 28.7 172.5 28.7 350S172.5 671.3 350 671.3 671.3 527.5 671.3 350 527.5 28.7 350 28.7zm199.9 329.4c-.3 10.2-.8 20.4-1.3 30.6-.2 4.2-.5 8.4-.9 12.7-.6 6.6-1.2 13.2-1.9 19.8-.5 4.8-1.1 9.6-1.8 14.4-.9 6-1.9 12.1-3.2 18-1.3 6.2-2.8 12.4-4.8 18.4-1.1 3.4-3 6.7-4.8 9.8-1.4 2.5-3.8 3.6-6.8 3.7-4.3.1-8.4-1-12.3-2.5-12.5-4.7-24-11.4-35.1-18.6-9.9-6.4-19.7-12.8-29.3-19.6-13.7-9.8-27.1-19.9-40.5-29.9-5.3-4-10.5-8.1-15.7-12.2-7.3-5.8-14.5-11.7-21.8-17.5-1.5-1.2-1.8-2.7-1.5-4.4.6-4.8 2.9-8.7 6.2-12.1 5.6-5.7 12.3-9.4 19.8-11.9 3.8-1.3 7.1-.9 9.6 2.6.5.7 1.2 1.3 1.7 2 3.6 4.4 7.1 8.9 10.7 13.3 9.4 11.4 20.3 21.3 32.7 29.4 6.9 4.5 14.2 8.5 22 11.6 5.3 2.1 10.7 4.1 16.1 6 4.3 1.5 6.9.1 9.4-4.2 2.4-4.2 3.9-8.6 4.8-13.3 1.1-5.3 2.1-10.6 2.9-15.9.8-5.6 1.3-11.2 1.8-16.8 1.2-13 1.6-26 1.3-39-.1-6.9-.5-13.9-.9-20.8-.2-3.2-.5-6.4-.8-9.6-.6-4.9-1-9.8-2-14.6-1.3-6.3-2.8-12.5-4.5-18.7-1-3.7-2.7-7.2-5.5-9.9-1.3-1.3-2.9-2-4.8-2-3.7-.1-7 1.1-10.3 2.5-9.2 3.9-17.6 9.3-25.9 14.9-14 9.4-27.4 19.8-40.7 30.3-9.5 7.5-18.8 15.2-28.1 22.8-8.4 6.9-16.8 13.9-25.2 20.8-10.7 8.8-21.3 17.5-32 26.3-12 9.8-24 19.7-36 29.5-6.6 5.4-13.2 10.7-19.8 16-6.3 5.1-12.6 10.2-18.9 15.2-4.5 3.6-9 7.2-13.6 10.6-5.2 3.9-10.4 7.6-15.7 11.3-4.4 3.2-8.8 6.4-13.4 9.3-5.7 3.6-11.4 7-17.4 10.2-5.3 2.8-10.8 4.9-16.8 5.8-6.9 1.1-11.8-1.7-15.2-7.5-3.1-5.1-5.1-10.6-6.5-16.4-1.2-4.9-2.5-9.9-3.4-14.9-.9-4.7-1.5-9.4-2.1-14.2-.7-5.6-1.4-11.1-1.9-16.7-.7-8.6-1.4-17.2-1.8-25.8-.5-11.6-.8-23.2-.9-34.8-.1-10.6-.1-21.3.2-31.9.2-9.6.7-19.2 1.2-28.8.5-7.9 1.2-15.8 1.8-23.6.2-3.1.4-6.2.8-9.3.7-5.3 1.5-10.6 2.3-16 .5-3.2.8-6.4 1.4-9.5 1.3-6.2 2.5-12.5 4.2-18.6 1.2-4.5 3-8.9 4.8-13.3.6-1.6 1.7-3 2.9-4.3 1.3-1.5 3-2.3 5.1-2.5 4.7-.3 9 .9 13.3 2.5 12.5 4.7 24 11.4 35.1 18.6 11.5 7.5 22.9 15.1 34 23 12.6 8.9 24.9 18.2 37.1 27.6 11.6 8.9 23 18.2 34.5 27.2 4.1 3.2 3.6 4.5 2 9.8-1.5 5-5.2 8.5-9.2 11.7-4.6 3.7-9.8 6.3-15.5 8.1-3.8 1.3-7.3 1.2-9.9-2.5-.5-.7-1.2-1.4-1.8-2.1-5-6.1-10.1-12.1-15.1-18.2-1.6-2-3.9-2-5.9-.4-4.4 3.6-8.9 7.1-13.3 10.7-5.9 4.9-11.9 9.7-17.7 14.8-10.4 9.3-20.7 18.7-31.1 28-.9.8-1.8 1.4-3 1-1.2-.5-1.8-1.4-1.9-2.7-.4-4.1-.9-8.1-1.2-12.2-.3-3.9-.4-7.8-.7-11.8-.1-1.4.3-2.5 1.3-3.4 6.4-5.8 12.7-11.7 19.1-17.4 8-7.1 16.2-14 24.3-21 1.2-1 2.3-2 3.5-3 2.4-2 2.4-4.5-.3-6.2-4.8-3-9.6-6-14.6-8.5-5.3-2.7-10.8-4.9-16.3-7.2-2.9-1.2-5.8-2.1-8.8-2.9-4.4-1.3-6.7-.1-9.2 4.4-2.3 4.2-3.8 8.7-4.8 13.3-1.1 5.2-2.1 10.4-2.9 15.6-.8 5.7-1.3 11.4-1.9 17.2-1.2 13-1.6 26-1.3 39 .1 6.9.4 13.8.9 20.7.4 6 1 12.1 1.8 18.1 1.1 7.5 2.2 15 4.6 22.2 1.1 3.3 2.3 6.6 4.1 9.5 3.4 5.6 5.2 5.5 11.2 4.7 6.7-.9 12.7-3.8 18.6-6.9 14.2-7.4 27.3-16.4 40.1-25.9 11.2-8.3 22.3-16.8 33.2-25.4 11.1-8.8 22.1-17.9 33.1-26.9 11.5-9.4 22.9-18.8 34.3-28.3 10.9-9.1 21.8-18.2 32.7-27.4 10.3-8.6 20.5-17.3 30.9-25.7 13.9-11.1 27.8-22.2 42-32.8 8.2-6.1 17-11.4 25.5-17 5.3-3.5 11-5.9 17-7.7 2.8-.9 5.8-1.5 8.9-.8 3.4.8 5.6 3 7.5 5.6 3.1 4.3 5.1 9.1 6.5 14.1 1.7 6.2 3.2 12.5 4.6 18.8 1 4.6 1.5 9.2 2.1 13.9.8 6.2 1.5 12.4 2.3 18.6.2 1.7.3 3.5.4 5.2.4 6.4.8 12.7 1 19.1.5 13.5.9 26.9 1.3 40.4h-.5c.2 8.5.4 16.6.2 24.7z"/>
</svg>