<svg xmlns="http://www.w3.org/2000/svg" viewBox="0 0 268 268" fill="none">
    <path fill-rule="evenodd" clip-rule="evenodd" d="M134 268c74.006 0 134-59.994 134-134C268 59.9938 208.006 0 134 0 59.9938 0 0 59.9938 0 134c0 74.006 59.9938 134 134 134Zm42.264-196.5912c22.879 7.8806 39.61 19.6938 36.323 41.6702l.001-.002.006.004c-2.378 16.088-11.297 23.875-23.138 26.606 16.257 8.464 24.53 21.444 16.649 43.947-9.779 27.949-33.014 30.307-63.915 24.459l-7.498 30.054-18.122-4.515 7.401-29.651c-4.698-1.167-9.497-2.405-14.441-3.747l-7.427 29.79-18.0999-4.515 7.4987-30.111c-1.7414-.445-3.4938-.902-5.2589-1.362-2.5262-.658-5.0783-1.324-7.6609-1.971L55 186.186l8.9969-20.743s13.3525 3.55 13.1709 3.287c5.1305 1.27 7.4067-2.075 8.3035-4.305l11.8503-47.509c.4769.115.9413.231 1.3882.343h.0015l.2571.064.2687.067c-.7232-.29-1.3787-.476-1.884-.604l8.4549-33.9143c.22-3.8503-1.107-8.7079-8.4452-10.5395.2833-.1896-13.1612-3.2715-13.1612-3.2715l4.8205-19.3547 24.9899 6.2403-.021.0937c3.757.9347 7.629 1.8218 11.571 2.7194L132.988 29l18.11 4.5154-7.278 29.1766c4.863 1.1099 9.755 2.2295 14.519 3.4176l7.226-28.9853 18.121 4.5154-7.422 29.7691ZM118.943 179.342c14.786 3.905 47.102 12.44 52.24-8.205h.001c5.263-21.108-26.072-28.14-41.366-31.572h-.002c-1.71-.384-3.219-.723-4.454-1.031l-9.951 39.891c1.014.252 2.202.566 3.532.917Zm57.845-66.589c-4.684 18.764-31.575 11.587-43.902 8.298l-.001-.001c-1.119-.298-2.118-.565-2.97-.777l9.022-36.1792c1.034.2578 2.301.5382 3.737.8561v.0001c12.764 2.8258 38.898 8.6118 34.115 27.803h-.001Z" fill="#000"/>
</svg>