<svg viewBox="0 0 200 200" xmlns="http://www.w3.org/2000/svg">
  <path fill="#FFD6E8" d="M37.2,-62.2C43.2,-60.9,39.6,-40.9,45.1,-27.4C50.6,-13.9,65.2,-6.9,69.5,2.5C73.9,12,68.2,24,63,38C57.8,52,53.2,68.1,42.8,70.9C32.4,73.7,16.2,63.3,2.8,58.4C-10.5,53.4,-21,54,-29.8,50.3C-38.7,46.6,-45.9,38.6,-51,29.5C-56.1,20.4,-59.2,10.2,-63.9,-2.8C-68.7,-15.7,-75.2,-31.4,-70.2,-40.8C-65.3,-50.2,-48.9,-53.3,-35.3,-50.3C-21.7,-47.2,-10.8,-38,2.4,-42.1C15.6,-46.2,31.2,-63.6,37.2,-62.2Z" transform="translate(100 100)" />
</svg>