<svg xmlns="http://www.w3.org/2000/svg" viewBox="0 0 268 268" xml:space="preserve">
    <path d="M133.59.28c-74.01 0-134 59.99-134 134s59.99 134 134 134 134-59.99 134-134-59.99-134-134-134zm.04 50.14 51.28 51.37-18.87 18.98-32.41-32.52-9.52 9.52-4.01 4.01-19.05 18.98-18.87-18.98 51.45-51.36zm18.97 83.83-18.95 18.95-18.95-18.95 18.95-18.95 18.95 18.95zm-102.87.05 18.95-18.95 18.95 18.95-18.95 18.95-18.95-18.95zm83.9 83.77L82.18 166.7l18.87-18.87 19.09 18.94 2.1 2.1 11.38 11.38 32.42-32.42 18.87 18.87-51.28 51.37zm64.89-64.83-18.95-18.95 18.95-18.95 18.95 18.95-18.95 18.95z"/>
    <path fill="none" d="M-.41.28h268v268h-268z"/>
</svg>