<svg xmlns="http://www.w3.org/2000/svg" viewBox="0 0 700 700" xml:space="preserve"><path d="M350 28.7C172.5 28.7 28.7 172.5 28.7 350S172.5 671.3 350 671.3 671.3 527.5 671.3 350 527.5 28.7 350 28.7zm160.7 218.8c6.6 0 12.1 5.5 12.1 12.2 0 6.7-5.5 12.1-12.2 12.1-6.5 0-12-5.5-12-12.1s5.5-12.1 12.1-12.2zM451.8 166c5.4 0 9.5 4.2 9.5 9.6 0 5.2-4.4 9.5-9.7 9.4-5.1 0-9.5-4.5-9.4-9.7.1-5.2 4.3-9.3 9.6-9.3zm-26.7 41.4c8.3 0 14.9 6.5 15 14.7 0 8.5-6.5 15.1-15 15.1-8.3 0-14.9-6.7-14.9-15 0-8.1 6.7-14.7 14.9-14.8zm22 145.4c-.1 16.1-13.1 28.9-29.1 28.9s-29.1-13-29-28.8c.1-16.3 13.1-29.3 29.2-29.3 15.8.2 29 13.4 28.9 29.2zm-34.3-59.1c.1 16.2-12.8 29.3-28.8 29.4-16.1.1-29.2-12.8-29.2-29-.1-16 12.8-29 28.7-29.1 16 0 29.2 12.8 29.3 28.7zm-63-138.7c7.1 0 12.1 5.5 11.9 12.6-.2 6.5-5.6 11.6-12.2 11.5-6.8-.1-12.1-5.6-11.8-12.5.2-6.4 5-11.7 12.1-11.6zm-.1 64.1c9.5.1 17.3 8 17.2 17.3-.2 8.6-6.7 17-17.6 17-9.1 0-16.8-8-16.7-17.3 0-9.2 7.9-17 17.1-17zm-33.6 46.4c16 0 29.2 13.2 29.1 29.1-.1 16.1-13 28.9-29.3 28.9-15.9 0-28.8-13-28.8-28.9.1-16.1 13.1-29.1 29-29.1zm-5.2 86.9c0 16.1-12.9 28.9-29 28.9s-29.2-13.1-29-29.2c.1-15.9 13.2-28.9 29.2-28.9 15.9.1 28.8 13.2 28.8 29.2zm-36.5-144.9c8.2.1 14.8 6.7 14.7 14.9 0 8.3-6.7 14.9-15 14.9s-14.9-6.7-14.9-15c.1-8.3 6.9-14.9 15.2-14.8zm-27.2-41.1c5.4 0 9.5 4.1 9.5 9.6 0 5.3-4.2 9.5-9.4 9.5-5.3 0-9.6-4.4-9.6-9.6 0-5.3 4.2-9.5 9.5-9.5zm1.9 111c9.5 0 17.2 7.7 17.3 17.2.1 9.3-7.7 17.1-17.2 17.2-9.3.1-17.2-7.8-17.2-17.3 0-9.3 7.8-17.1 17.1-17.1zm-103.8 85.5c-5.1 0-9.5-4.3-9.6-9.5-.1-5.3 4.3-9.6 9.6-9.6s9.5 4.1 9.5 9.4c0 5.4-4.2 9.7-9.5 9.7zm43.8-114.6c6.6.1 12 5.7 11.9 12.3-.1 6.5-5.6 11.9-12.2 11.9-6.7-.1-12.2-5.7-12-12.4.2-6.6 5.7-11.9 12.3-11.8zm.1 209.9c-6.7-.1-12-5.5-11.9-12.2 0-6.8 5.5-12.1 12.2-12 6.7.1 12 5.5 11.9 12.3 0 6.5-5.7 12-12.2 11.9zm9.8-90.3c-8.2 0-14.9-6.8-14.9-15.1 0-8 6.8-14.8 15-14.8s15 6.9 15 15c-.1 8.3-6.8 14.9-15.1 14.9zm33 43.3c0-9.4 7.8-17.2 17.2-17.2 9.5 0 17.2 7.9 17.2 17.3 0 9.3-7.9 17.1-17.2 17.1-9.4-.1-17.2-7.9-17.2-17.2zM247.7 540c-5.2 0-9.5-4.3-9.5-9.5 0-5.4 4.2-9.6 9.5-9.6s9.6 4.4 9.5 9.7c0 5.1-4.4 9.4-9.5 9.4zm26.8-41.4c-8.2 0-14.9-6.7-14.9-14.8 0-8.2 6.7-15 15-15s15 6.8 15 15c-.1 8.3-6.8 14.9-15.1 14.8zm12.7-86.8c0-16.1 13-29.1 29.1-29.1 15.9 0 29 13.1 29 29.1 0 15.9-13 28.9-28.8 29-16.4 0-29.3-12.8-29.3-29zm62.1 139.1c-6.7 0-12.1-5.4-12.1-12 0-6.8 5.2-12.1 12-12.1s12 5.3 12 12.1c.1 6.5-5.3 12-11.9 12zm-.3-65c-9.6 0-17-7.6-17.1-17.3-.1-9.2 8.1-17.4 17.2-16.8 9.6 0 17 7.5 17 17.1 0 9.5-7.6 17.1-17.1 17zm34.8-45.1c-16 .1-29-12.8-29-28.7-.1-16.2 12.8-29.3 28.8-29.4 16-.1 29.2 13 29.2 29s-13 29-29 29.1zm41.9 57.5c-8.3 0-14.9-6.6-14.9-14.9 0-8.2 6.7-14.8 15.1-14.8 8.1 0 14.9 6.7 14.9 14.9s-6.7 14.8-15.1 14.8zm27 40.9c-5.3 0-9.5-4.3-9.5-9.7 0-5.4 4.2-9.5 9.7-9.4 5.3.1 9.5 4.4 9.4 9.8-.1 5.1-4.5 9.3-9.6 9.3zM450.9 428c-9.4 0-17.1-7.7-17.1-17.1-.1-9.3 7.7-17.2 17.1-17.2 9.4 0 17.3 7.8 17.2 17.3-.1 9.3-7.8 17-17.2 17zm0-116.1c-9.5 0-17.2-7.7-17.2-17.1 0-9.4 7.7-17.1 17.1-17.1 9.6 0 17.3 7.6 17.2 17.2 0 9.4-7.6 17-17.1 17zm34.9 40.9c0-8.4 6.6-15 14.9-15s14.9 6.6 14.9 15c0 8.2-6.6 14.9-14.8 14.9-8.3.1-15-6.6-15-14.9zm25.1 104.8c-6.6 0-11.9-5.3-12-12 0-6.8 5.2-12.1 12-12.1 6.7 0 12.1 5.3 12.1 12.1 0 6.6-5.4 12-12.1 12zm43.7-95.3c-5.3-.1-9.4-4.3-9.4-9.6s4.2-9.5 9.5-9.6c5.2 0 9.7 4.4 9.7 9.6-.1 5.4-4.4 9.7-9.8 9.6z"/></svg>