<svg xmlns="http://www.w3.org/2000/svg" viewBox="54.64999771 53.65000153 596.01000977 595.99993896" xml:space="preserve">
    <path d="M348.68 53.65h7.95c5.44 1.2 10.82 2.82 16.32 3.52 11.77 1.5 23.79 1.55 35.36 3.9 61.72 12.52 115.15 40.64 158.52 86.72 48.89 51.95 76.46 113.28 80.39 184.89.28 5.05 2.25 10 3.44 14.99v7.95c-1.2 5.44-2.82 10.82-3.52 16.33-1.49 11.76-1.55 23.78-3.89 35.35-12.47 61.75-40.59 115.18-86.72 158.5-51.98 48.82-113.27 76.52-184.9 80.41-5.05.27-10 2.25-15 3.44h-7.95c-4.11-1.15-8.21-3.23-12.35-3.29-33.97-.54-66.63-7.91-97.28-21.81C129.83 575.03 68.23 491.07 58.1 370.62c-.43-5.06-2.27-10-3.45-15v-7.95c1.16-4.56 2.81-9.05 3.39-13.68 1.26-10.02 1.46-20.18 3.01-30.15 8.78-56.32 32.07-106.19 70.18-148.35C185.97 94.94 254.09 61 336.33 56.98c4.16-.2 8.23-2.18 12.35-3.33zM162.12 332.08c16.51 2.45 31.51-.78 45.7 2.11v36.29c-12.54 0-24.39-.04-36.23.02-4.06.02-8.84.22-9.04 5.47-.45 11.68-.14 23.39-.14 36.65h44.88c.32 6.24.77 10.95.78 15.67.07 24.71-.07 49.41.12 74.12.04 5.04 1.15 10.07 1.8 15.33 4.43.31 7.46.71 10.5.71 47.2.01 94.41-.02 141.61-.06 3.08 0 6.22.1 9.25-.39 62.12-10.02 110.7-39.07 137.48-98.42 2.31-5.13 5.44-7.4 11.12-7.17 8.37.34 16.77-.16 25.14.12 7.29.24 10.64-3.26 10.8-10.18.17-7.5-.03-15 .19-22.49.19-6.77-3.03-9.59-9.61-9.46-7.75.15-15.51.04-23.47.04v-37.39c7.76 0 14.72.19 21.66-.05 9.08-.32 10.63-1.75 11.25-10.91.41-6.15.34-12.36.06-18.52-.48-10.7-2.04-12.3-12.51-12.54-10.07-.23-20.15-.05-30.14-.05-1.44-2.96-2.45-4.88-3.32-6.86-18.65-42.05-49.92-70.59-92.46-87.58-25.03-9.99-51.2-12.75-77.64-13.19-37.49-.63-75-.16-112.49-.16-1.32 0-2.65-.03-3.97.03-13.18.53-15.08 2.24-15.24 15.8-.24 19.41-.07 38.82-.07 58.23v33.81c-12.73 0-24.57.07-36.41-.03-6.59-.06-9.71 2.9-9.61 9.6.12 10.07.01 20.17.01 31.45z"/>
    <path d="M250.96 481.56V413.4h214.97c-10.4 22.86-26.7 38.84-47.67 50.25-22.07 12.01-45.98 17.5-70.94 17.82-31.71.4-63.43.09-96.36.09zm.18-257.48c20.22 0 39.55-.03 58.88.01 18.51.04 37.13-1.16 55.49.49 44.19 3.97 77.45 25.68 100.48 66H251.13c.01-21.8.01-43.26.01-66.5zm225.73 109.94c3.46 12.48 5.27 23.91-.75 35.75H251.39v-35.75h225.48z"/>
</svg>