<svg xmlns="http://www.w3.org/2000/svg" viewBox="0 0 700 700" xml:space="preserve">
    <path d="M270.6 145.3c-18.5-.2-34.6 15.8-34.4 34.4.2 19.2 15.4 33.9 34.9 33.6 18.8-.2 33.2-15 33.1-34.1 0-18.7-14.8-33.7-33.6-33.9zM443.8 186.5c-37.8-.2-68.7 30-69.1 67.4-.4 37.2 30.1 68.2 67.8 69 37.1.7 68.7-30.3 68.9-67.6.3-37.9-29.9-68.6-67.6-68.8z"/>
    <path d="M350 28.7C172.5 28.7 28.7 172.5 28.7 350S172.5 671.3 350 671.3 671.3 527.5 671.3 350 527.5 28.7 350 28.7zM203 579.3h294.3c-88.3 60.3-214.4 56.4-294.3 0zm352.2-48.9c-4.3 4.7-8.6 9.4-13.1 13.8-25.5 25-25.5 24.9-61.3 24.9-95.1 0-190.2.1-285.3-.3-5.7 0-12.5-2.5-16.8-6.2-13.5-11.4-26-23.9-38.9-36 .5-.8 1-1.7 1.6-2.5h418.3c-1.9 2.6-3 4.6-4.5 6.3zm-111.4-16.8V380.5c37.3 44.6 73.7 88 111.4 133.1H443.8zm128.1-4.3c-.9 1.2-1.9 2.3-3.6 4.3-41.8-49.9-83.2-99.3-125.2-149.5-13.8 16.5-27 32.2-40.7 48.5-44-52.5-87.6-104.4-132.1-157.4-56.8 68-113.1 135.5-169.4 202.9l-.3.3s.3-.3.2-.3c0 .1 0 .2.1.3 2.7.3 5.4.7 8.1.7h160.5V273.3c.7-.4 1.4-.8 2.1-1.1 41.3 49.3 82.6 98.5 124.2 148.2-22.1 26.5-44.5 52.4-65.6 79.3-8.5 10.8-17.2 14.8-31 14.6-53.3-.9-106.6-.5-159.9-.2-6 0-10.1-1.3-13.1-6.8-7.4-13.3-15.4-26.2-22.8-39.4-1.6-2.8-1.8-6.3-2.6-9.5h-.3l.3-.3c-5-12.6-11.4-24.8-14.9-37.8-32.1-121.7 21.9-247.9 131.7-309.1 158.8-88.4 359.4 1.6 398.6 179.5 17.4 79 2.1 152.2-44.3 218.6z"/>
</svg>