<svg xmlns="http://www.w3.org/2000/svg" viewBox="0 0 38.3 36.6" fill="none">
    <path fill="#000" d="M29 9.2c-1.9-.9-3.8-1.5-5.8-1.8-.3.4-.5 1-.7 1.5-2.1-.3-4.3-.3-6.5 0-.2-.5-.5-1-.8-1.5-2 .3-4 .9-5.8 1.8C5.7 14.7 4.7 20 5.2 25.3c2.2 1.6 4.6 2.8 7.1 3.6.6-.8 1.1-1.6 1.5-2.5-.8-.3-1.6-.7-2.4-1.2.2-.2.4-.3.6-.5 4.5 2.1 9.8 2.1 14.3 0 .2.2.4.3.6.5-.8.5-1.6.8-2.4 1.2.4.9 1 1.7 1.5 2.5 2.6-.8 5-2 7.1-3.6.7-6.1-.9-11.4-4.1-16.1zM14.5 22.1c-1.4 0-2.5-1.3-2.5-2.8 0-1.6 1.1-2.9 2.5-2.9s2.6 1.3 2.5 2.8c0 1.6-1.1 2.9-2.5 2.9zm9.4 0c-1.4 0-2.5-1.3-2.5-2.8 0-1.6 1.1-2.9 2.5-2.9s2.6 1.3 2.5 2.8c0 1.6-1.1 2.9-2.5 2.9z"/>
</svg>