<svg xmlns="http://www.w3.org/2000/svg" viewBox="27 36 628 628" xml:space="preserve">
    <path d="M341 36C167.58 36 27 176.58 27 350s140.58 314 314 314 314-140.58 314-314S514.42 36 341 36zm-.14 56c.18 2.45.35 3.7.35 4.96.01 56.21 0 112.42.05 168.63 0 2.76-.31 4.58-3.34 5.9-45.45 19.76-90.83 39.69-136.23 59.56-.85.37-1.74.62-4 1.42C245.63 251.95 292.9 172.56 340.86 92zm.1 188.73v151.83c-49.45-28.96-98.41-57.63-148.35-86.87 49.93-21.86 98.91-43.31 148.35-64.96zm.29 304.08h-.96c-20.98-29.78-41.94-59.58-62.95-89.33-26.48-37.5-53.02-74.96-79.52-112.44-.9-1.27-1.71-2.6-3.26-4.95 2.27 1.17 3.51 1.72 4.66 2.4 45.98 26.9 91.93 53.85 137.97 80.66 3.02 1.76 4.15 3.56 4.13 7.09-.14 38.85-.08 77.71-.07 116.57zm9.74-489c0-.9.08-1.8.12-2.7.29-.09.59-.18.88-.27 48.01 79.84 96.03 159.68 144.59 240.43-2.18-.79-3.47-1.17-4.69-1.7-45.57-19.94-91.13-39.91-136.73-59.81-2.7-1.18-4.29-2.29-4.28-5.8.15-56.71.11-113.43.11-170.15zm.87 489h-.96c.03-38.71.11-77.43.02-116.14-.01-3.6.91-5.64 4.2-7.55 45.94-26.71 91.77-53.6 137.62-80.44 1.24-.72 2.5-1.4 4.46-1.51-48.45 68.54-96.9 137.09-145.34 205.64zm-.63-152.19V280.7c49.4 21.62 98.46 43.1 148.56 65.03-49.93 29.2-98.99 57.9-148.56 86.89z"/>
</svg>