<svg xmlns="http://www.w3.org/2000/svg" viewBox="0 0 38.3 36.6" xml:space="preserve">
    <path fill="#000" d="M26.9 9.3c-.9 0-1.6.7-1.6 1.6 0 .9.7 1.6 1.6 1.6.9 0 1.6-.7 1.6-1.6 0-.8-.7-1.6-1.6-1.6zM19.8 11.4c-3.7 0-6.8 3-6.8 6.8 0 3.7 3 6.8 6.8 6.8 3.7 0 6.8-3 6.8-6.8-.1-3.7-3.1-6.8-6.8-6.8zm0 11.1c-2.4 0-4.3-1.9-4.3-4.3s1.9-4.3 4.3-4.3 4.3 1.9 4.3 4.3-1.9 4.3-4.3 4.3z"/>
    <path fill="#000" d="M25.1 32h-11c-4.6 0-8.3-3.7-8.3-8.3v-11c0-4.6 3.7-8.3 8.3-8.3h11c4.6 0 8.3 3.7 8.3 8.3v11c0 4.5-3.7 8.3-8.3 8.3zM14.2 7C11 7 8.5 9.6 8.5 12.7v11c0 3.1 2.5 5.7 5.7 5.7h11c3.1 0 5.7-2.5 5.7-5.7v-11c0-3.1-2.5-5.7-5.7-5.7h-11z"/>
</svg>