<svg xmlns="http://www.w3.org/2000/svg" viewBox="0 0 700 700" style="enable-background:new 0 0 700 700" xml:space="preserve">
    <path d="m546 313.3-.1-.8c-.6-3.3-1.4-6.6-2.2-9.9-11.5-6.1-31.9-14.3-70.1-28.5 16.8 35 42.5 58.2 75.6 83.9.1-2.7.2-5.4.2-8.1 0-12.1-1.1-24.3-3.3-36.3l-.1-.3z"/>
    <path d="M348.4 28.7C170.9 28.7 27 172.5 27 350s143.9 321.3 321.3 321.3S669.7 527.5 669.7 350 525.9 28.7 348.4 28.7zm201 397.9c-31.3 82-111.5 139.9-205 138.1-115.8-2.2-209.8-97.2-210.7-212.9-.5-65 27.8-123.3 73-163.1 2.7-2.4 7-.6 7.1 3 3.4 85.3 61.7 170.1 155.2 211.9 58.7 26.3 120.9 30.8 175.4 17.2 3.4-.8 6.3 2.5 5 5.8zm11-42.5c-47.5-36.3-84-64.3-104.6-116.5-27.2-10-61.8-22.5-106-38.4-102.5-37-121.6-72.8-47.3-89 3.6-.8 7.3-1.5 10.9-2.1 11.3-1.8 23-2.8 34.9-2.8 5.8 0 11.6.3 17.3.7-.8-.1-1.6-.2-2.5-.2 1.2.1 2.4.2 3.5.3.9.1 1.8.1 2.8.2 2.9.3 5.7.6 8.6 1 3.1.4 6.2.9 9.3 1.5h.2c9.6 1.8 19 4.2 28.1 7.2 3.1 1 6.1 2.1 9.1 3.2 9.4 3.6 18.4 7.8 27.1 12.6 0 0 .1 0 .1.1 4.7 2.6 9.3 5.4 13.8 8.3.6.4 1.2.7 1.8 1.1 2.1 1.4 4.1 2.8 6.1 4.3.5.3 1 .7 1.5 1 2.5 1.8 4.9 3.7 7.3 5.6.2.2.4.3.6.5 2.2 1.8 4.4 3.6 6.5 5.5 2.3 2 4.5 4 6.7 6.1l.2.2c2.3 2.2 4.5 4.4 6.7 6.7s4.3 4.6 6.4 6.9c2.1 2.4 4.1 4.8 6.1 7.3 5.2 6.5 10 13.2 14.4 20.3.7 1.1 1.4 2.1 2.1 3.2 1.6 2.6 3.1 5.3 4.6 8 .1.1.1.2.2.3 1.8 3.3 3.5 6.6 5.1 10 1.1 2.2 2.1 4.4 3.1 6.7 3.8 8.7 7.1 17.7 9.7 27 1.8 6.2 3.3 12.6 4.5 19.1.6 3.4 1.2 6.8 1.7 10.3v-.1c1.4 9.7 2.1 19.7 2.1 29.8 0 11.6-.9 23-2.7 34.1z"/>
</svg>