<svg xmlns="http://www.w3.org/2000/svg" viewBox="0 0 700 700" style="enable-background:new 0 0 700 700" xml:space="preserve">
    <path d="M350 28.7C172.5 28.7 28.7 172.5 28.7 350S172.5 671.3 350 671.3 671.3 527.5 671.3 350 527.5 28.7 350 28.7zm23.4 484.1c-14.5-.3-22.3-12.4-21.8-22.8.5-12 9.9-21.4 22.1-21.4 12.5 0 22 9.6 21.9 22.2-.1 12.6-9.7 22.3-22.2 22zm18.5-85.8c-10.2 1.8-20.7 2.2-31.1 3.2-21.2 2.1-37.6 16.6-42 37.4-1.8 8.6-3.7 17.2-5.5 25.9-2.3 10.9-11.6 17.4-21.8 15.4-10.6-2.1-16.7-11.7-14.3-22.8 8.9-42 18-84 27-126 4.8-22.6 9.7-45.2 14.6-67.7 2.3-10.6 11.7-16.9 21.9-14.8 10 2 16.3 11.7 14 22.3-5.7 27.2-11.7 54.4-17.6 81.6l-2.4 11.7c-.5 2.1.1 3 2.4 2.7 15-1.7 30.1-3.1 45.1-5 39.9-5 73.2-36.9 80.6-76.8 10.1-54.5-27.5-105.8-82.5-112.6-51.5-6.4-99.4 30.5-106.4 82.2-2 14.8-.5 29.2 4.2 43.3 2.8 8.3.1 16.9-6.5 21.6-6.5 4.7-15.8 4.9-22.2-.5-2.9-2.4-5.4-6-6.6-9.6-24.7-75.6 19.8-154.3 97.3-171.9 10.3-2.3 21.1-2.8 28.9-3.8 56.8 4.1 97.3 29 120.4 78.4 36.7 78.5-12 170.6-97.5 185.8z"/>
</svg>