<svg xmlns="http://www.w3.org/2000/svg" viewBox="0 0 700 700" style="enable-background:new 0 0 700 700" xml:space="preserve">
    <path d="M350 28.7C172.5 28.7 28.7 172.5 28.7 350S172.5 671.3 350 671.3 671.3 527.5 671.3 350 527.5 28.7 350 28.7zm204.8 424c-3.6 10.7-11.1 17.5-20.9 22.9-25.3 14.1-50.1 28.9-75.1 43.5-11.5 6.7-22.9 7-34.6.2-27.4-16-54.8-31.7-82.2-47.7-9.2-5.3-13.6-13.7-14-24.2-.2-6.1.7-12.3-.2-18.3-2-13 3.7-20.3 15.2-25.4 8.7-3.9 16.7-9.3 27.4-15.3 0 11.8.4 21.1-.1 30.3-.7 13.7 4.8 23.2 17 29.6 12.9 6.8 25.4 14.4 38 22 10.4 6.3 20.7 6.6 31.1.4 14.2-8.4 28.3-16.8 42.4-25.2 8.3-5 12.4-12.2 12.3-22-.1-18 0-36 0-53.9 0-10.1-4.5-17.4-13.2-22.4-14-8-27.9-16.3-41.9-24.4-10.3-6-20.4-6.4-31-.1-48.6 28.5-97.7 56.2-146 85.2-16.2 9.7-29.9 10-45.7 0-22.4-14.1-46-26.3-68.5-40.3-8-5-14.2-12.8-21.2-19.3V231.2c5.8-5.6 10.8-12.6 17.5-16.7 23.8-14.7 48.5-28.1 72.3-42.9 16.2-10.1 30.9-10.8 47.5-.1 23.3 15 47.6 28.4 71.6 42.3 10.9 6.3 17.3 15 16.6 28.2-.4 8.2-.4 16.5 0 24.7.4 6.6-2 10.9-7.8 14-10.4 5.5-20.5 11.5-33.3 18.8 0-9.2-.4-16 .1-22.7 1.4-19-5.2-32.8-23.2-41.3-11.5-5.4-22-13.1-32.9-19.7-10-6-20.1-6.4-30.3-.5-14.5 8.3-29.1 16.6-43.5 25.1-8.2 4.9-12.5 12.1-12.5 21.9.1 18 .2 36-.1 53.9-.2 10.3 4.6 17.5 12.9 22.6 14 8.7 28 17.2 42.2 25.6 10.3 6.1 20.6 6.2 31.1 0 49.4-28.9 99.1-57.4 148.2-86.8 15.1-9.1 28.1-9.6 43.2-.2 24.5 15.4 49.8 29.5 74.9 43.8 8.8 5 14.2 12.1 17 21.6-.3 36.7-.3 73.3-.3 109.9z"/>
</svg>