<svg xmlns="http://www.w3.org/2000/svg" viewBox="32.6933403 32.31999969 634.98669434 634.81646729" xml:space="preserve">
    <path d="M343.49 32.32h13.34c.89.1 1.77.28 2.66.3 9.05.19 18.05.91 27.04 1.93 12.36 1.4 24.59 3.54 36.69 6.42 35.32 8.39 68.26 22.38 98.8 42.02 25.58 16.45 48.31 36.2 68.21 59.19 18.14 20.95 33.28 43.89 45.37 68.84 19.68 40.6 30.31 83.44 31.8 128.55.03.78.19 1.56.28 2.34v16.19c-.1.78-.25 1.55-.29 2.33-.26 4.81-.4 9.62-.77 14.42-.91 11.55-2.46 23.03-4.64 34.41-6.11 32.04-16.89 62.44-32.36 91.15-18.27 33.89-41.93 63.5-70.95 88.8-26.44 23.04-55.91 41.19-88.36 54.47-22.61 9.25-45.98 15.8-70.12 19.63-11.56 1.83-23.17 3.15-34.86 3.59-8.45.32-16.92.26-25.38.14-10.43-.14-20.8-1.16-31.14-2.5-12.24-1.58-24.33-3.9-36.28-6.92-25.1-6.33-49.07-15.59-71.89-27.79-34.72-18.57-64.97-42.76-90.72-72.55-22.54-26.08-40.32-55.1-53.41-86.99-7.92-19.29-13.86-39.17-17.85-59.63-2.09-10.7-3.68-21.47-4.59-32.33-.57-6.69-.77-13.41-1.13-20.11-.52-9.69-.16-19.37.54-29.02.62-8.53 1.6-17.05 2.74-25.54 1.83-13.7 4.84-27.17 8.63-40.46 10.65-37.5 27.62-71.9 50.91-103.16 14.19-19.05 30.34-36.27 48.41-51.67 19.62-16.73 40.95-30.88 64.02-42.4 23.01-11.5 47.06-20.07 72.15-25.74 9.39-2.12 18.85-3.88 28.41-5.03 5.72-.68 11.45-1.36 17.19-1.81 5.27-.42 10.56-.53 15.84-.79.57-.04 1.14-.19 1.71-.28zm140.09 251.42v-2.06c0-21.59-.01-43.18.03-64.77 0-1.27-.4-2.17-1.29-3.06-10.61-10.57-21.2-21.16-31.77-31.77-.9-.9-1.82-1.24-3.08-1.24-67.32.02-134.64.02-201.96.02-.63 0-1.25.05-1.51.07-.8 1.04-1.32 1.88-2 2.56-10.5 10.53-21.01 21.05-31.55 31.54-.98.97-1.39 1.95-1.39 3.34.03 44.03.04 88.06.01 132.09 0 1.44.44 2.46 1.46 3.47 10.36 10.29 20.7 20.61 30.98 30.99 1.34 1.35 2.68 1.89 4.57 1.88 43.55-.05 87.11-.04 130.66-.04h2.43v68.32h-67.06V438c0-2.8.02-5.61-.01-8.41-.03-2.83.12-5.67-.09-8.52H209.2c-.04.81-.1 1.48-.1 2.16 0 21.49.01 42.97-.03 64.46 0 1.38.41 2.37 1.38 3.34 10.51 10.45 20.99 20.92 31.43 31.43 1.05 1.05 2.09 1.52 3.6 1.52 66.84-.04 133.68-.04 200.51-.02 1.37 0 2.37-.36 3.35-1.35 10.52-10.58 21.07-21.14 31.66-31.66.95-.94 1.3-1.9 1.3-3.21-.03-44.51-.02-89.01.01-133.52 0-1.32-.38-2.27-1.32-3.2-10.43-10.37-20.84-20.77-31.2-31.22-1.26-1.27-2.51-1.78-4.3-1.78-43.66.05-87.32.03-130.98.03-2.58 0-2.41.17-2.41-2.41v-63.66c0-.32-.01-.64 0-.95.05-1.28.12-1.36 1.34-1.41.32-.01.63-.01.95-.01h63.82c.42 0 .85.02 1.27.01.74-.02 1.06.35 1.04 1.07-.01.48.01.95.01 1.43 0 9.79 0 19.58.01 29.37 0 .72.07 1.45.11 2.29 34.33-.04 68.48-.04 102.93-.04z"/>
</svg>