<svg xmlns="http://www.w3.org/2000/svg" viewBox="0 0 700 700" xml:space="preserve"><path d="m487.7 500.6.2-.2-.3.3c0-.1 0-.1.1-.1zM229.6 380.7c3.9 2.1 27.8 16.8 36.9 25 5.4 4.9 40.4 31.5 44.8 34.5.3.2.6.2.8 0 2.6-2.1 17.3-14 20.5-18 3.3-4.3 55.1-44.7 59.6-48.3.2-.2.5-.2.7-.1 3.3 1.3 27.8 11.6 55.2 29.4 28.7 18.6 36.1 1.1 36.5 0v-.1c.7-1.2 13.8-22.8 23.2-34.8-.7-4.3-1.4-8.8-2.3-13.4v-.2c0-.1-1.7-10.1-5.1-20-1.1-3.3-2.3-6-3.4-8.3-15.6 21.4-52.5 32.2-110.2 32.2-15.4 0-32.3-.8-50.7-2.3-58.5-4.9-114.9-16.4-132.3-20.2-10.7 29.1-16.2 56.1-16.5 80.6l41.4-35.9c.3-.2.6-.2.9-.1zm62-261.3c2.3 1.1 4.6 2.2 7 3 10.5 3.5 21.4 4.6 32.3 4.9 4.7.1 9.5-.3 14.2-.9 9.8-1.3 19.2-4.3 27.9-9.1 2.6-1.5 5.1-3.1 7.2-5.3.9-.9 1.5-2 1-3.9-.7-.5-1.5-1.4-2.5-1.9-2.1-1-4.3-1.9-6.5-2.6-7.8-2.4-15.8-3.5-23.9-3.9-7.2-.4-14.4-.5-21.7.3-8.4.9-16.5 2.8-24.4 5.8-4.1 1.6-8.1 3.5-11.5 6.2-.7.6-1.4 1.3-2 2-.8 1.2-.7 2.5.3 3.6.9.7 1.7 1.4 2.6 1.8z"/><path d="M436.2 342.4c26.7-4.4 44.1-13 51.9-25.4-1.2-.1-2.7-.3-4.5-.4-21.7-2.1-87.9-8.4-135.5-7h-.2c-.3 0-34.3 0-69.1 3.2-37.6 3.4-55.9 8.5-64.8 12.6 22.6 4.7 72.2 14.1 123.4 18.4 40.2 3.3 73.5 2.8 98.8-1.4z"/><path d="M544.8 356.7c-4.4-18.3-10.7-35.9-18.8-53-4.7-10-9.8-19.7-15.9-29-12.9-19.7-27.7-37.8-44.3-54.5-11.6-11.7-24.1-22.4-37.8-31.6-10.6-7.1-21.7-13.1-33.7-17.5-4.5-1.6-4.8-1.6-8.7.9-6.7 4.4-13.9 7.5-21.6 9.3-3.4.8-6.5 2-9.6 3.5-3.9 2-8.2 3.2-12.6 3.5-6.3.5-12.5-.2-18.6-2.4-.9-.3-1.8-.5-2.8-.6-7.9-1.1-15.4-3.3-22.5-6.9-2.3-1.2-4.7-2.3-7.1-3.5-2-1-4.1-1.1-6.1-.2-1.8.8-3.6 1.5-5.4 2.5-7.6 4.2-14.4 9.5-21 15-11.5 9.6-22.1 20-32.1 31.1-14.9 16.5-28.2 34.3-39.6 53.4-16.7 28.2-28.9 58.2-34.5 90.6-1.4 8.1-2.4 16.2-2.8 24.4-.4 8.7-.4 17.4.3 26.1.6 7.4 1.5 14.7 2.9 21.9 3.4 17.5 9.3 34.2 17.3 50.1 7.3 14.4 16.3 27.7 27.3 39.5 16.2 17.3 35.4 30.1 57.3 39.2 21.9 9.1 44.9 13.8 68.4 15.6 6.9.5 13.9.6 20.8.9 9.4-.1 18.8-.6 28.2-1.6 9.5-1 19-2.5 28.3-4.5 19.5-4.2 38.2-10.6 56-19.7 16.7-8.6 31.8-19.3 45.1-32.6 11-11 20.4-23.3 28.1-36.8 12.8-22.4 19.6-46.6 21.1-72.3.6-10.1.3-20.3-.7-30.4-.8-10.3-2.5-20.4-4.9-30.4zm-.7 46.4-21.9-23.7c1.8 15.6 2.4 30.5 1.8 44.5-.8 17.7-3.5 34.1-8.2 48.7-7.5 23.6-17.7 35.7-20 37.7-18.1 15.1-39.2 27.4-62.7 36.6-22.7 8.8-46.6 14.3-71.1 16.4-7 .6-14 .9-20.9.9-17.1 0-33.8-1.8-49.7-5.5-23.3-5.3-43.9-14.3-61.2-26.6-13.1-9.4-24.2-20.6-32.8-33.5-9.1-13.6-15.6-28.9-19.2-45.6 0-.2-.1-.3-.1-.5l-4.4 4.3c-.4.4-1.2.1-1.2-.5l-4.1-58.5c-.1-.9 1.2-1.1 1.4-.2l4.8 18.9c.3-27.4 6.7-57.5 19.2-90l.2-.4c3.8-8.3 16.6-20 83.6-26 34.5-3.1 68.1-3.2 70.1-3.2 48.4-1.3 115 5 136.9 7.1 2.3.2 4.1.4 5.5.5 9.1.8 16.4 9.4 22.2 26.2 3.6 10.5 5.4 20.7 5.6 21.8.7 3.5 1.3 6.9 1.9 10.3 7.2 7.5 19.8 29.5 25.4 39.5.5.7-.5 1.4-1.1.8z"/><path d="M487.5 439.9c-.1.3-.5.5-.9.4l-17.6-6c-.6-.2-1.1-.5-1.6-.9-6.4-5.1-53.8-42.2-74-39-21.7 3.5-71.3 78.2-74.7 79.1s-39.1-33.9-63.4-54.7c-24.3-20.9-26.9-15.6-26.9-15.6l-39.2 38.6c.4 2.9 1 5.7 1.6 8.5 6.5 29.8 22.3 53.8 47 71.5 15.9 11.4 35 19.7 56.6 24.6 21 4.8 43.4 6.2 66.7 4.3 23.3-1.9 46-7.2 67.5-15.6 22.2-8.6 42-20.1 58.9-34.3 1.3-1.4 10.2-11.8 16.7-33.3 5.1-16.6 9.6-42.7 6.2-79.4l-22.9 51.8z"/><path d="M350 28.7C172.5 28.7 28.7 172.5 28.7 350S172.5 671.3 350 671.3 671.3 527.5 671.3 350 527.5 28.7 350 28.7zm219.3 384c-.3 29-7.5 56.4-21.3 81.9-18.1 33.5-44.3 59-77.5 77.4-19.9 11-41.1 18.6-63.2 23.7-12.5 2.9-25.2 4.8-38 6-3 .3-6 .4-9 .6-.8.1-1.6.2-2.3.4h-26.3c-.8-.1-1.6-.3-2.4-.4-2.3-.2-4.5-.3-6.8-.4-10.4-.7-20.8-2.1-31-4-17.1-3.2-33.6-8.2-49.4-15.4-24.9-11.3-46.3-27.1-63.9-48-11.8-13.9-21.1-29.3-28.6-46-10.3-23-16.4-47.1-17.9-72.3-.1-1.9-.5-3.7-.8-5.6v-14.5c.3-1.6.7-3.3.8-4.9 1.9-32.5 10.3-63.3 23.7-92.8 11.6-25.6 26.6-49 44.1-70.9 14.3-17.9 30.2-34.3 47.8-49.1 6.3-5.3 12.8-10.4 20-14.6 2.9-1.7 5.9-3.2 9-4.9-.3-1.3-.5-2.7-.8-4.1-1.5-7.4-2.5-15-3.4-22.5l-1.5-14.4c-.5-5.5.8-10.4 4.1-14.9 2.7-3.7 6.1-6.5 10-8.8 6.2-3.8 12.9-6.4 19.9-8.5 10.4-3 21-4.6 31.8-4.5 6 0 12 .1 18 .6 9.9.7 19.7 2.4 29 6.1 2.9 1.2 5.7 2.6 8.2 4.6 5.1 3.9 8.1 9 8.4 15.5.4 10.7.8 21.3.9 32 .1 3.9-.4 7.7-.7 11.6 0 .6-.1 1.2-.1 1.8.4.2.7.5 1.1.6 16.8 6.1 32.1 15.1 46.4 25.8 15.4 11.4 29.3 24.4 42.1 38.6 14.1 15.4 26.9 31.8 37.8 49.6 16.4 26.9 28.3 55.7 35.6 86.3 2.4 9.8 4 19.7 5.2 29.8 1.1 9.5 1.1 19.1 1 28.6z"/></svg>