<svg xmlns="http://www.w3.org/2000/svg" viewBox="32 34.38272858 632.92193604 632.24945068" xml:space="preserve">
    <path d="M32 351.34v-1.71c.24-2.95.63-5.9.71-8.85.74-29.54 5.62-58.42 14.81-86.46 24.3-74.1 69.25-132.3 135.8-173.11 61.45-37.69 128.37-52.49 200.11-44.9 42.64 4.51 82.55 17.69 119.9 38.63 58.65 32.89 102.46 79.9 131.07 140.59 30.4 64.49 38.1 132.02 23.06 201.77-15.46 71.65-51.8 131.08-108.3 177.52-51.14 42.03-110.2 65.6-176.38 70.8-50.21 3.95-98.66-3.64-145.03-23.14-76.68-32.25-132.42-86.49-167.24-161.98-15.41-33.4-24.29-68.64-26.94-105.38-.58-7.93-1.05-15.86-1.57-23.78zm348.75 40.01v-.13c48.04 0 96.08-.01 144.12.03 3.12 0 6.26-.61 6.86-3.72.43-2.22-.5-5.46-2.02-7.17-19.46-21.8-39.17-43.38-58.73-65.09-3.47-3.84-7.38-5.68-12.7-5.67-95.09.11-190.17.09-285.26.06-3.16 0-6.22.22-7.69 3.37-1.54 3.31.23 5.88 2.5 8.36 19.11 20.97 38.25 41.9 57.1 63.1 4.46 5.02 9.24 7.02 15.97 6.98 46.62-.23 93.24-.12 139.85-.12zm1.42 43.16v-.69c-47.48 0-94.97.03-142.45-.04-5.49-.01-9.83 1.8-13.55 5.94-19.27 21.41-38.66 42.71-58.02 64.04-2.16 2.38-4.29 4.77-2.89 8.31 1.47 3.7 4.76 3.54 7.94 3.55 14.26.02 28.52.06 42.78.09 80.28.16 160.56.31 240.84.52 5.38.01 9.95-1.15 13.75-5.38 19.42-21.65 38.99-43.18 58.49-64.77.95-1.05 1.91-2.16 2.56-3.41 1.68-3.21.09-7.22-3.17-7.89-1.65-.34-3.41-.25-5.11-.25-47.06-.03-94.11-.02-141.17-.02zm-66.8-167.91v.52c47.19 0 94.37-.04 141.56.05 5.96.01 10.56-1.87 14.6-6.42 13.43-15.14 27.15-30.03 40.76-45.02 6.04-6.65 12.24-13.16 17.97-20.07 1.38-1.66 1.89-4.73 1.54-6.96-.46-2.96-3.36-3.48-6.11-3.39-.71.02-1.43-.01-2.14-.02-94.23-.15-188.47-.28-282.7-.49-6.26-.01-11.12 2.03-15.38 6.77-18.66 20.8-37.54 41.4-56.33 62.08-2.46 2.71-5.7 5.23-3.81 9.59 1.86 4.29 5.88 3.34 9.32 3.34 46.91.03 93.82.02 140.72.02z"/>
</svg>