<svg xmlns="http://www.w3.org/2000/svg" viewBox="0 0 700 700" xml:space="preserve">
    <path d="M334.2 430.1c-9.8 13.8-12.6 27.8-8.6 42.7 11.8 43.6 52.5 73.6 70.4 73.6h.6c1.5-.3 9.6-2 21.2-6.2-.1-2.1.1-4.4.8-6.9 8-27.4 62.8-55.2 98.2-68.2 1.7-2.5 3.3-5 4.8-7.6 3.5-5.9 6.5-11.8 9.1-17.7-44.3-1.4-123.6-28.7-159.7-42-14.8 9.3-28.1 20-36.8 32.3zM454.9 169.7c-28.9-15.6-61.4-24-94.8-24-24.2 0-47.7 4.3-70.1 12.8 5.8 10.2-3.9 25.1-4 25.3-10.3 15.5-29.4 29.3-50.2 40.3 4.4 8.8 13.4 17.7 26.1 26.3 38.4-48.1 139.3-79.2 190.1-80.7h2.9z"/>
    <path d="M350 24.7C172.5 24.7 28.7 168.6 28.7 346S172.5 667.4 350 667.4 671.3 523.5 671.3 346 527.5 24.7 350 24.7zm-89.8 528.6c-2.3.1-7.2.4-21.4-7.5-7.4-4.2-14.6-8.9-21.5-13.9-9.3-6.8-18-14.3-26.2-22.5-8.1-8.1-15.6-16.9-22.5-26.2-6.8-9.3-12.9-19.1-18.3-29.4-5.3-10.3-9.9-21.1-13.6-32.2-3.7-11.2-6.6-22.7-8.5-34.6-1.9-11.9-2.9-24-2.9-36.4 0-12.4 1-24.6 2.9-36.4 1.9-11.9 4.8-23.4 8.5-34.6.8-2.3 1.5-4.5 2.4-6.7 16.2 21.5 34.9 41 50.9 62.8 15.2 20.7 36 54.5 40.3 61.7 26.4 44.8 30.6 72.4 32.6 85.7 2.1 13.2 0 65.7-2.7 70.2zM559 433.1c-2.6 2.8-6.9 4.7-12.2 5.7-2.5 6.6-5.6 13.2-9.2 19.9 2.2-.5 4.1-.8 5.5-1 2.5-.2 3.6 1.5 2.5 3.5-21.5 37.6-53.3 68.6-91.7 88.7-9.6 4.5-19.6 5.1-26.7 2.4-17.2 6.5-29.1 8.5-29.4 8.5-.6 0-1.2.1-1.8.1-27.7 0-72-38.6-84.4-84.2-5.1-19-1.5-37.4 10.8-54.8 8-11.2 19.1-21.3 32-30.3-1.2-.5-1.9-.7-2-.8C328 380 253.7 347.5 247 296.4c-1.6-12 1.1-23.3 6.9-34-14.4-9.7-25.2-20.4-31-31.8-32.5 15.2-65.7 23.4-74.4 20.8 0-.1-.1-.1-.1-.2.6-1.3 1.3-2.5 1.9-3.8 5.3-10.3 11.5-20.1 18.3-29.4 6.8-9.3 14.3-18 22.5-26.2 8.1-8.1 16.9-15.6 26.2-22.5 5.8-4.2 11.8-8.2 17.9-11.9 13.1-7.6 26.6-8.1 31-8.3 2.7.1 5.1.2 7.4.6 26.4-11.8 55.7-18.4 86.5-18.4 51.1 0 98 18 134.7 47.9 1 .7 2 1.4 3 2.2 47.1 41.2 76.8 101.7 76.8 169.1 0 29.2-5.5 57-15.6 82.6z"/>
</svg>