<svg xmlns="http://www.w3.org/2000/svg" viewBox="41.01315308 46.04999924 609.40686035 609.57775879" xml:space="preserve">
    <path d="M323.9 46.05h39.67c8.48 1.35 16.95 2.81 25.45 4.04 123.27 17.85 224.16 110.72 251.95 232.2 3.6 15.75 6.32 31.7 9.45 47.55v39.67c-2.17 12.42-4.34 24.84-6.5 37.26-27.48 158.52-183.6 270.2-343.09 245.41-166.47-25.88-280.5-179-256.67-344.67C61.9 184.24 154.69 83.43 276.36 55.5c15.74-3.62 31.69-6.32 47.54-9.45zm-95.35 172.34c-56.42 41.58-76.53 130.45-47.23 200.34 31.77 75.81 111.09 120.09 191.02 108.17 81.6-12.16 136.35-80.82 140.68-122.22-65.24 16.25-127.53 11.42-184.72-25.79-57.58-37.48-89.07-91.8-99.75-160.5zm288.12 150.08c2.01-6.11 4.21-9.43 3.95-12.54-1.63-20.11-.67-41.11-6.34-60.09-21.61-72.3-89.76-122.76-165.34-124.11-24.44-.44-48.95 1.78-70.56 15.02-15.06 9.23-16.26 21.25-1.97 31.41 13.11 9.31 27.56 17.48 42.55 23.24 33.61 12.92 67.8 24.39 102.02 35.63 10.03 3.29 16.16 8.77 20.79 18.08 16 32.15 44.43 51.72 74.9 73.36z"/>
</svg>