<svg xmlns="http://www.w3.org/2000/svg" version="1.1" x="0" y="0" viewBox="43.43000031 43.57791138 616.71362305 616.80212402" xml:space="preserve" preserveAspectRatio="xMidYMid meet">
    <path d="M351.65 660.38c-171.02-.42-308.25-138.5-308.22-308.4.03-172.24 140.15-309.02 309.48-308.4 169.87.63 308.05 139.09 307.23 309.99-.8 167.54-136.44 306.46-308.49 306.81zm-38.71-356.11c-.9.14-1.64.31-2.39.36-7.38.46-14.76.84-22.14 1.34-21.37 1.46-42.62 4.02-63.65 8.14-12.89 2.53-25.64 5.63-37.87 10.57-5.34 2.15-10.49 4.68-15.06 8.23-11.24 8.71-11.33 19.71.01 28.24 3.5 2.63 7.44 4.76 11.39 6.66 8.89 4.27 18.35 6.94 27.91 9.22 29.29 7.01 59.11 10.15 89.1 11.97 4.16.25 8.32.5 12.88.77v74c0 22.63 0 45.26.01 67.89 0 1.38.14 2.77.21 4.08 6.04.65 72.73.39 75.39-.33V390.03c.5-.27.69-.44.89-.46 1.43-.15 2.85-.33 4.29-.4 19.19-.94 38.3-2.71 57.32-5.45 15.3-2.2 30.47-5.01 45.33-9.33 9.02-2.62 17.95-5.6 25.88-10.77 3.1-2.02 6.08-4.49 8.45-7.31 4.9-5.86 4.81-12.97-.18-18.74-2.34-2.71-5.27-5.04-8.25-7.05-5.8-3.91-12.32-6.39-18.94-8.58-21.05-6.97-42.81-10.6-64.75-13.13-13.48-1.55-27.03-2.43-40.55-3.6-3.05-.26-6.1-.44-9.32-.68v-40.87H471.76c3.97 0 7.95.01 11.92 0 3.92-.01 7.85-.05 11.79-.08v-75.15c-.52-.15-.83-.32-1.13-.32-95.27-.02-190.55-.03-285.82-.04-.55 0-1.09.1-1.64.18-.09.01-.17.12-.25.19-.08.08-.15.16-.22.25-.62 6.87-.33 72.22.44 75.07h106.08c.01 13.72.01 27.04.01 40.51z"/>
    <path d="M313.08 308.34v61.31c25.28 1.23 50.15 1.04 75.49-.1.28-6.86.09-13.54.13-20.22.03-6.84.01-13.69.01-20.53v-20.44c4 .24 7.61.33 11.2.68 12.19 1.2 24.4 2.25 36.54 3.8 20.92 2.67 41.71 6.1 61.67 13.23 5.17 1.85 10.15 4.31 15 6.9 2.58 1.37 4.84 3.46 6.96 5.52 1.3 1.27 2.25 3 3.04 4.67 1.49 3.16.99 6.15-1.83 8.31-2.71 2.06-5.53 4.04-8.54 5.62-7.36 3.87-15.3 6.28-23.29 8.42-15.37 4.1-31.02 6.8-46.79 8.82-19.93 2.55-39.94 4.08-60.03 4.86-21.19.82-42.38.79-63.56.21-17.98-.49-35.93-1.75-53.81-3.82-21.28-2.47-42.45-5.58-62.99-11.9-5.99-1.84-11.83-4.24-17.56-6.81-2.97-1.33-5.7-3.37-8.22-5.48-2.95-2.47-3.24-4.74-1.77-8.31 1.17-2.84 3.13-5.13 5.58-6.85 2.97-2.08 6.05-4.08 9.29-5.69 10.16-5.01 21.03-7.93 32.01-10.46 17.87-4.12 35.97-6.86 54.2-8.72 11.2-1.14 22.42-2.03 33.63-3.01 1.07-.09 2.15-.01 3.64-.01z"/>
</svg>