<svg xmlns="http://www.w3.org/2000/svg" viewBox="0 0 38.3 36.6" xml:space="preserve">
    <path fill="#000" d="M32.6 9.8c-.9.4-1.8.6-2.7.8.4-.1 1.1-.9 1.3-1.2.4-.5.7-1.1.9-1.7v-.1H32c-1 .6-2.1 1-3.3 1.2-.1 0-.2 0-.2-.1l-.3-.3c-.5-.4-1-.7-1.6-1-.8-.3-1.6-.4-2.4-.4-.8.1-1.6.3-2.3.6-.7.4-1.3.9-1.9 1.5-.5.6-.9 1.4-1.1 2.2-.2.8-.2 1.5-.1 2.3 0 .1 0 .1-.1.1-4.5-.7-8.2-2.3-11.2-5.7-.1-.1-.2-.1-.3 0-1.3 2-.7 5.1 1 6.7.2.2.4.4.7.6-.1 0-1.2-.1-2.2-.6-.1-.1-.2 0-.2.1v.6c.3 2 1.6 3.8 3.5 4.6.2.1.5.2.7.2-.4.1-.9.2-2.1.1-.2 0-.2 0-.2.2.9 2.5 2.9 3.3 4.4 3.7.2 0 .4 0 .6.1-.5.8-2.2 1.3-3 1.6-1.3.9-2.9 1.1-4.4.9h-.4c-.1 0 0 .1.1.2.3.2.6.4 1 .6 1 .5 2 .9 3.1 1.2 5.5 1.5 11.8.4 15.9-3.7 3.3-3.2 4.4-7.7 4.4-12.2 0-.2.2-.3.3-.4.9-.6 1.5-1.4 2.2-2.3.1-.2.1-.4.1-.4 0-.1 0 0-.1 0z"/>
</svg>